<svg width="213" height="31" viewBox="0 0 213 31" fill="none" xmlns="http://www.w3.org/2000/svg">
<path fill-rule="evenodd" clip-rule="evenodd" d="M6.5 0H6L0 31H6.5H12.5H20.1224C22.1726 31 23.8908 30.6125 25.2768 29.8375C26.6773 29.0625 27.7313 27.9861 28.4388 26.6083C29.1463 25.2306 29.5 23.6231 29.5 21.7861C29.5 19.9921 28.9874 18.3919 27.9623 16.9854C27.2163 15.9472 26.2107 15.171 24.9454 14.6567C25.6847 14.2146 26.3077 13.6202 26.8145 12.8736C27.6375 11.6824 28.049 10.2329 28.049 8.525C28.049 7.13287 27.7169 5.78379 27.0527 4.47778C26.403 3.17176 25.3996 2.10255 24.0424 1.27014C22.6996 0.42338 20.9743 0 18.8663 0H18.5H6.5ZM16.1042 12.3785L17.5625 4.84375H18.8013C20.043 4.84375 21.0104 5.20255 21.7034 5.92014C22.3964 6.63773 22.7429 7.53472 22.7429 8.61111C22.7429 9.42917 22.5697 10.1181 22.2232 10.6778C21.8766 11.2375 21.4074 11.6609 20.8154 11.9479C20.2235 12.235 19.5521 12.3785 18.8013 12.3785H16.1042ZM13.4458 26.1132L15.1667 17.2222H19.6243C20.5917 17.2222 21.4218 17.4231 22.1149 17.825C22.8079 18.2125 23.3349 18.7363 23.6959 19.3965C24.0568 20.0567 24.2373 20.803 24.2373 21.6354C24.2373 22.5539 24.0279 23.3505 23.6092 24.025C23.205 24.6852 22.6419 25.2019 21.92 25.575C21.1981 25.9338 20.3823 26.1132 19.4727 26.1132H13.4458Z" fill="#009FE3"/>
<path fill-rule="evenodd" clip-rule="evenodd" d="M21.7561 31H24.7561C26.8064 31 28.5247 30.6125 29.9106 29.8374C31.311 29.0625 32.3652 27.9861 33.0725 26.6084C33.78 25.2305 34.1338 23.623 34.1338 21.7861C34.1338 19.9922 33.6213 18.3918 32.5962 16.9854C31.8501 15.947 30.8445 15.1711 29.5791 14.6567C30.3184 14.2146 30.9414 13.6201 31.4482 12.8735C32.2712 11.6824 32.6829 10.2329 32.6829 8.5249C32.6829 7.13281 32.3506 5.78369 31.6865 4.47778C31.0369 3.17188 30.0334 2.10254 28.6763 1.27002C27.3335 0.42334 25.6082 0 23.5 0H20.5C22.6082 0 24.3335 0.42334 25.6763 1.27002C27.0334 2.10254 28.0369 3.17188 28.6865 4.47778C29.3506 5.78369 29.6829 7.13281 29.6829 8.5249C29.6829 10.2329 29.2712 11.6824 28.4482 12.8735C27.9414 13.6201 27.3184 14.2146 26.5791 14.6567C27.8445 15.1711 28.8501 15.947 29.5962 16.9854C30.6213 18.3918 31.1338 19.9922 31.1338 21.7861C31.1338 23.623 30.78 25.2305 30.0725 26.6084C29.3652 27.9861 28.311 29.0625 26.9106 29.8374C25.5247 30.6125 23.8064 31 21.7561 31Z" fill="#009FE3"/>
<path d="M51.6738 23.5V8.6H57.9538C58.8871 8.6 59.6938 8.76667 60.3738 9.1C61.0538 9.42 61.5738 9.88667 61.9338 10.5C62.2938 11.1 62.4738 11.8133 62.4738 12.64C62.4738 13.36 62.2871 14.02 61.9138 14.62C61.5538 15.2067 60.9871 15.6733 60.2138 16.02V15.02C60.8938 15.2867 61.4471 15.6267 61.8738 16.04C62.3005 16.44 62.6071 16.8933 62.7938 17.4C62.9938 17.9067 63.0938 18.44 63.0938 19C63.0938 20.4 62.6338 21.5 61.7138 22.3C60.8071 23.1 59.5605 23.5 57.9738 23.5H51.6738ZM54.0338 21.4H58.1538C58.9405 21.4 59.5671 21.1867 60.0338 20.76C60.5005 20.32 60.7338 19.74 60.7338 19.02C60.7338 18.2867 60.5005 17.7067 60.0338 17.28C59.5671 16.84 58.9405 16.62 58.1538 16.62H54.0338V21.4ZM54.0338 14.54H58.0138C58.6538 14.54 59.1671 14.36 59.5538 14C59.9405 13.6267 60.1338 13.14 60.1338 12.54C60.1338 11.94 59.9405 11.4733 59.5538 11.14C59.1671 10.8067 58.6538 10.64 58.0138 10.64H54.0338V14.54ZM69.9814 23.74C68.9014 23.74 67.9414 23.4933 67.1014 23C66.2748 22.4933 65.6281 21.8133 65.1614 20.96C64.6948 20.0933 64.4614 19.1267 64.4614 18.06C64.4614 16.9667 64.6948 16 65.1614 15.16C65.6414 14.32 66.2814 13.66 67.0814 13.18C67.8814 12.6867 68.7881 12.44 69.8014 12.44C70.6148 12.44 71.3414 12.58 71.9814 12.86C72.6214 13.14 73.1614 13.5267 73.6014 14.02C74.0414 14.5 74.3748 15.0533 74.6014 15.68C74.8414 16.3067 74.9614 16.9733 74.9614 17.68C74.9614 17.8533 74.9548 18.0333 74.9414 18.22C74.9281 18.4067 74.9014 18.58 74.8614 18.74H66.2414V16.94H73.5814L72.5014 17.76C72.6348 17.1067 72.5881 16.5267 72.3614 16.02C72.1481 15.5 71.8148 15.0933 71.3614 14.8C70.9214 14.4933 70.4014 14.34 69.8014 14.34C69.2014 14.34 68.6681 14.4933 68.2014 14.8C67.7348 15.0933 67.3748 15.52 67.1214 16.08C66.8681 16.6267 66.7681 17.2933 66.8214 18.08C66.7548 18.8133 66.8548 19.4533 67.1214 20C67.4014 20.5467 67.7881 20.9733 68.2814 21.28C68.7881 21.5867 69.3614 21.74 70.0014 21.74C70.6548 21.74 71.2081 21.5933 71.6614 21.3C72.1281 21.0067 72.4948 20.6267 72.7614 20.16L74.6014 21.06C74.3881 21.5667 74.0548 22.0267 73.6014 22.44C73.1614 22.84 72.6281 23.16 72.0014 23.4C71.3881 23.6267 70.7148 23.74 69.9814 23.74ZM76.7671 23.5V12.68H78.9271V14.8L78.6671 14.52C78.9337 13.84 79.3604 13.3267 79.9471 12.98C80.5337 12.62 81.2137 12.44 81.9871 12.44C82.7871 12.44 83.4937 12.6133 84.1071 12.96C84.7204 13.3067 85.2004 13.7867 85.5471 14.4C85.8937 15.0133 86.0671 15.72 86.0671 16.52V23.5H83.8271V17.12C83.8271 16.5733 83.7271 16.1133 83.5271 15.74C83.3271 15.3533 83.0404 15.06 82.6671 14.86C82.3071 14.6467 81.8937 14.54 81.4271 14.54C80.9604 14.54 80.5404 14.6467 80.1671 14.86C79.8071 15.06 79.5271 15.3533 79.3271 15.74C79.1271 16.1267 79.0271 16.5867 79.0271 17.12V23.5H76.7671ZM92.0858 23.74C90.9792 23.74 90.0058 23.4667 89.1658 22.92C88.3392 22.3733 87.7592 21.64 87.4258 20.72L89.1658 19.9C89.4592 20.5133 89.8592 21 90.3658 21.36C90.8858 21.72 91.4592 21.9 92.0858 21.9C92.6192 21.9 93.0525 21.78 93.3858 21.54C93.7192 21.3 93.8858 20.9733 93.8858 20.56C93.8858 20.2933 93.8125 20.08 93.6658 19.92C93.5192 19.7467 93.3325 19.6067 93.1058 19.5C92.8925 19.3933 92.6725 19.3133 92.4458 19.26L90.7458 18.78C89.8125 18.5133 89.1125 18.1133 88.6458 17.58C88.1925 17.0333 87.9658 16.4 87.9658 15.68C87.9658 15.0267 88.1325 14.46 88.4658 13.98C88.7992 13.4867 89.2592 13.1067 89.8458 12.84C90.4325 12.5733 91.0925 12.44 91.8258 12.44C92.8125 12.44 93.6925 12.6867 94.4658 13.18C95.2392 13.66 95.7858 14.3333 96.1058 15.2L94.3658 16.02C94.1525 15.5 93.8125 15.0867 93.3458 14.78C92.8925 14.4733 92.3792 14.32 91.8058 14.32C91.3125 14.32 90.9192 14.44 90.6258 14.68C90.3325 14.9067 90.1858 15.2067 90.1858 15.58C90.1858 15.8333 90.2525 16.0467 90.3858 16.22C90.5192 16.38 90.6925 16.5133 90.9058 16.62C91.1192 16.7133 91.3392 16.7933 91.5658 16.86L93.3258 17.38C94.2192 17.6333 94.9058 18.0333 95.3858 18.58C95.8658 19.1133 96.1058 19.7533 96.1058 20.5C96.1058 21.14 95.9325 21.7067 95.5858 22.2C95.2525 22.68 94.7858 23.06 94.1858 23.34C93.5858 23.6067 92.8858 23.74 92.0858 23.74ZM103.14 23.74C102.1 23.74 101.147 23.4933 100.28 23C99.4269 22.5067 98.7469 21.8333 98.2402 20.98C97.7335 20.1267 97.4802 19.16 97.4802 18.08C97.4802 16.9867 97.7335 16.02 98.2402 15.18C98.7469 14.3267 99.4269 13.66 100.28 13.18C101.134 12.6867 102.087 12.44 103.14 12.44C104.207 12.44 105.16 12.6867 106 13.18C106.854 13.66 107.527 14.3267 108.02 15.18C108.527 16.02 108.78 16.9867 108.78 18.08C108.78 19.1733 108.527 20.1467 108.02 21C107.514 21.8533 106.834 22.5267 105.98 23.02C105.127 23.5 104.18 23.74 103.14 23.74ZM103.14 21.64C103.78 21.64 104.347 21.4867 104.84 21.18C105.334 20.8733 105.72 20.4533 106 19.92C106.294 19.3733 106.44 18.76 106.44 18.08C106.44 17.4 106.294 16.7933 106 16.26C105.72 15.7267 105.334 15.3067 104.84 15C104.347 14.6933 103.78 14.54 103.14 14.54C102.514 14.54 101.947 14.6933 101.44 15C100.947 15.3067 100.554 15.7267 100.26 16.26C99.9802 16.7933 99.8402 17.4 99.8402 18.08C99.8402 18.76 99.9802 19.3733 100.26 19.92C100.554 20.4533 100.947 20.8733 101.44 21.18C101.947 21.4867 102.514 21.64 103.14 21.64ZM114.447 23.74C113.633 23.74 112.92 23.56 112.307 23.2C111.693 22.8267 111.213 22.3133 110.867 21.66C110.533 20.9933 110.367 20.2267 110.367 19.36V12.68H112.627V19.16C112.627 19.6533 112.727 20.0867 112.927 20.46C113.127 20.8333 113.407 21.1267 113.767 21.34C114.127 21.54 114.54 21.64 115.007 21.64C115.487 21.64 115.907 21.5333 116.267 21.32C116.627 21.1067 116.907 20.8067 117.107 20.42C117.32 20.0333 117.427 19.58 117.427 19.06V12.68H119.667V23.5H117.527V21.38L117.767 21.66C117.513 22.3267 117.093 22.84 116.507 23.2C115.92 23.56 115.233 23.74 114.447 23.74ZM126.905 23.74C125.865 23.74 124.932 23.4933 124.105 23C123.292 22.4933 122.645 21.8133 122.165 20.96C121.699 20.1067 121.465 19.1467 121.465 18.08C121.465 17.0133 121.705 16.0533 122.185 15.2C122.665 14.3467 123.312 13.6733 124.125 13.18C124.939 12.6867 125.859 12.44 126.885 12.44C127.752 12.44 128.519 12.6133 129.185 12.96C129.852 13.3067 130.379 13.7867 130.765 14.4L130.425 14.92V8.36H132.665V23.5H130.525V21.3L130.785 21.72C130.412 22.3733 129.879 22.8733 129.185 23.22C128.492 23.5667 127.732 23.74 126.905 23.74ZM127.125 21.64C127.752 21.64 128.312 21.4867 128.805 21.18C129.312 20.8733 129.705 20.4533 129.985 19.92C130.279 19.3733 130.425 18.76 130.425 18.08C130.425 17.4 130.279 16.7933 129.985 16.26C129.705 15.7267 129.312 15.3067 128.805 15C128.312 14.6933 127.752 14.54 127.125 14.54C126.499 14.54 125.932 14.6933 125.425 15C124.919 15.3067 124.525 15.7267 124.245 16.26C123.965 16.7933 123.825 17.4 123.825 18.08C123.825 18.76 123.965 19.3733 124.245 19.92C124.525 20.4533 124.912 20.8733 125.405 21.18C125.912 21.4867 126.485 21.64 127.125 21.64ZM138.144 23.74C137.41 23.74 136.764 23.6133 136.204 23.36C135.657 23.0933 135.23 22.7333 134.924 22.28C134.617 21.8133 134.464 21.2667 134.464 20.64C134.464 20.0533 134.59 19.5267 134.844 19.06C135.11 18.5933 135.517 18.2 136.064 17.88C136.61 17.56 137.297 17.3333 138.124 17.2L141.884 16.58V18.36L138.564 18.94C137.964 19.0467 137.524 19.24 137.244 19.52C136.964 19.7867 136.824 20.1333 136.824 20.56C136.824 20.9733 136.977 21.3133 137.284 21.58C137.604 21.8333 138.01 21.96 138.504 21.96C139.117 21.96 139.65 21.8267 140.104 21.56C140.57 21.2933 140.93 20.94 141.184 20.5C141.437 20.0467 141.564 19.5467 141.564 19V16.22C141.564 15.6867 141.364 15.2533 140.964 14.92C140.577 14.5733 140.057 14.4 139.404 14.4C138.804 14.4 138.277 14.56 137.824 14.88C137.384 15.1867 137.057 15.5867 136.844 16.08L134.964 15.14C135.164 14.6067 135.49 14.14 135.944 13.74C136.397 13.3267 136.924 13.0067 137.524 12.78C138.137 12.5533 138.784 12.44 139.464 12.44C140.317 12.44 141.07 12.6 141.724 12.92C142.39 13.24 142.904 13.6867 143.264 14.26C143.637 14.82 143.824 15.4733 143.824 16.22V23.5H141.664V21.54L142.124 21.6C141.87 22.04 141.544 22.42 141.144 22.74C140.757 23.06 140.31 23.3067 139.804 23.48C139.31 23.6533 138.757 23.74 138.144 23.74ZM149.382 23.5V8.6H155.662C156.596 8.6 157.402 8.76667 158.082 9.1C158.762 9.42 159.282 9.88667 159.642 10.5C160.002 11.1 160.182 11.8133 160.182 12.64C160.182 13.36 159.996 14.02 159.622 14.62C159.262 15.2067 158.696 15.6733 157.922 16.02V15.02C158.602 15.2867 159.156 15.6267 159.582 16.04C160.009 16.44 160.316 16.8933 160.502 17.4C160.702 17.9067 160.802 18.44 160.802 19C160.802 20.4 160.342 21.5 159.422 22.3C158.516 23.1 157.269 23.5 155.682 23.5H149.382ZM151.742 21.4H155.862C156.649 21.4 157.276 21.1867 157.742 20.76C158.209 20.32 158.442 19.74 158.442 19.02C158.442 18.2867 158.209 17.7067 157.742 17.28C157.276 16.84 156.649 16.62 155.862 16.62H151.742V21.4ZM151.742 14.54H155.722C156.362 14.54 156.876 14.36 157.262 14C157.649 13.6267 157.842 13.14 157.842 12.54C157.842 11.94 157.649 11.4733 157.262 11.14C156.876 10.8067 156.362 10.64 155.722 10.64H151.742V14.54ZM162.61 23.5V12.68H164.77V14.86L164.57 14.54C164.81 13.8333 165.197 13.3267 165.73 13.02C166.263 12.7 166.903 12.54 167.65 12.54H168.31V14.6H167.37C166.623 14.6 166.017 14.8333 165.55 15.3C165.097 15.7533 164.87 16.4067 164.87 17.26V23.5H162.61ZM174.536 23.74C173.456 23.74 172.496 23.4933 171.656 23C170.829 22.4933 170.183 21.8133 169.716 20.96C169.249 20.0933 169.016 19.1267 169.016 18.06C169.016 16.9667 169.249 16 169.716 15.16C170.196 14.32 170.836 13.66 171.636 13.18C172.436 12.6867 173.343 12.44 174.356 12.44C175.169 12.44 175.896 12.58 176.536 12.86C177.176 13.14 177.716 13.5267 178.156 14.02C178.596 14.5 178.929 15.0533 179.156 15.68C179.396 16.3067 179.516 16.9733 179.516 17.68C179.516 17.8533 179.509 18.0333 179.496 18.22C179.483 18.4067 179.456 18.58 179.416 18.74H170.796V16.94H178.136L177.056 17.76C177.189 17.1067 177.143 16.5267 176.916 16.02C176.703 15.5 176.369 15.0933 175.916 14.8C175.476 14.4933 174.956 14.34 174.356 14.34C173.756 14.34 173.223 14.4933 172.756 14.8C172.289 15.0933 171.929 15.52 171.676 16.08C171.423 16.6267 171.323 17.2933 171.376 18.08C171.309 18.8133 171.409 19.4533 171.676 20C171.956 20.5467 172.343 20.9733 172.836 21.28C173.343 21.5867 173.916 21.74 174.556 21.74C175.209 21.74 175.763 21.5933 176.216 21.3C176.683 21.0067 177.049 20.6267 177.316 20.16L179.156 21.06C178.943 21.5667 178.609 22.0267 178.156 22.44C177.716 22.84 177.183 23.16 176.556 23.4C175.943 23.6267 175.269 23.74 174.536 23.74ZM186.002 23.62C184.868 23.62 183.988 23.3 183.362 22.66C182.735 22.02 182.422 21.12 182.422 19.96V14.72H180.522V12.68H180.822C181.328 12.68 181.722 12.5333 182.002 12.24C182.282 11.9467 182.422 11.5467 182.422 11.04V10.2H184.682V12.68H187.142V14.72H184.682V19.86C184.682 20.2333 184.742 20.5533 184.862 20.82C184.982 21.0733 185.175 21.2733 185.442 21.42C185.708 21.5533 186.055 21.62 186.482 21.62C186.588 21.62 186.708 21.6133 186.842 21.6C186.975 21.5867 187.102 21.5733 187.222 21.56V23.5C187.035 23.5267 186.828 23.5533 186.602 23.58C186.375 23.6067 186.175 23.62 186.002 23.62ZM194.052 23.74C193.012 23.74 192.059 23.4933 191.192 23C190.339 22.5067 189.659 21.8333 189.152 20.98C188.645 20.1267 188.392 19.16 188.392 18.08C188.392 16.9867 188.645 16.02 189.152 15.18C189.659 14.3267 190.339 13.66 191.192 13.18C192.045 12.6867 192.999 12.44 194.052 12.44C195.119 12.44 196.072 12.6867 196.912 13.18C197.765 13.66 198.439 14.3267 198.932 15.18C199.439 16.02 199.692 16.9867 199.692 18.08C199.692 19.1733 199.439 20.1467 198.932 21C198.425 21.8533 197.745 22.5267 196.892 23.02C196.039 23.5 195.092 23.74 194.052 23.74ZM194.052 21.64C194.692 21.64 195.259 21.4867 195.752 21.18C196.245 20.8733 196.632 20.4533 196.912 19.92C197.205 19.3733 197.352 18.76 197.352 18.08C197.352 17.4 197.205 16.7933 196.912 16.26C196.632 15.7267 196.245 15.3067 195.752 15C195.259 14.6933 194.692 14.54 194.052 14.54C193.425 14.54 192.859 14.6933 192.352 15C191.859 15.3067 191.465 15.7267 191.172 16.26C190.892 16.7933 190.752 17.4 190.752 18.08C190.752 18.76 190.892 19.3733 191.172 19.92C191.465 20.4533 191.859 20.8733 192.352 21.18C192.859 21.4867 193.425 21.64 194.052 21.64ZM201.498 23.5V12.68H203.658V14.8L203.398 14.52C203.665 13.84 204.092 13.3267 204.678 12.98C205.265 12.62 205.945 12.44 206.718 12.44C207.518 12.44 208.225 12.6133 208.838 12.96C209.452 13.3067 209.932 13.7867 210.278 14.4C210.625 15.0133 210.798 15.72 210.798 16.52V23.5H208.558V17.12C208.558 16.5733 208.458 16.1133 208.258 15.74C208.058 15.3533 207.772 15.06 207.398 14.86C207.038 14.6467 206.625 14.54 206.158 14.54C205.692 14.54 205.272 14.6467 204.898 14.86C204.538 15.06 204.258 15.3533 204.058 15.74C203.858 16.1267 203.758 16.5867 203.758 17.12V23.5H201.498Z" fill="white"/>
</svg>
