<svg width="195" height="30" viewBox="0 0 195 30" fill="none" xmlns="http://www.w3.org/2000/svg">
<path fill-rule="evenodd" clip-rule="evenodd" d="M5.96378 0.778564H5.50503L0 29.2212H5.96378H11.4688H18.4624C20.3435 29.2212 21.9199 28.8657 23.1916 28.1546C24.4766 27.4436 25.4436 26.456 26.0927 25.1918C26.7418 23.9277 27.0664 22.4529 27.0664 20.7674C27.0664 19.1214 26.5961 17.6532 25.6556 16.3628C24.9711 15.4102 24.0484 14.698 22.8876 14.2262C23.5659 13.8205 24.1375 13.2752 24.6024 12.5902C25.3575 11.4972 25.7351 10.1673 25.7351 8.6003C25.7351 7.32301 25.4304 6.08523 24.821 4.88695C24.2249 3.68867 23.3042 2.70766 22.059 1.94392C20.827 1.16702 19.244 0.778564 17.3099 0.778564H16.9738H5.96378ZM14.7757 12.1359L16.1137 5.22273H17.2503C18.3896 5.22273 19.2771 5.55193 19.913 6.21032C20.5488 6.86872 20.8668 7.69171 20.8668 8.6793C20.8668 9.42987 20.7078 10.0619 20.3899 10.5755C20.0719 11.089 19.6414 11.4775 19.0983 11.7408C18.5551 12.0042 17.9392 12.1359 17.2503 12.1359H14.7757ZM12.3366 24.7376L13.9155 16.58H18.0054C18.8929 16.58 19.6547 16.7644 20.2905 17.1331C20.9264 17.4886 21.4099 17.9693 21.7411 18.575C22.0722 19.1807 22.2378 19.8654 22.2378 20.6292C22.2378 21.4719 22.0458 22.2027 21.6616 22.8216C21.2907 23.4273 20.774 23.9014 20.1117 24.2438C19.4493 24.573 18.7009 24.7376 17.8663 24.7376H12.3366Z" fill="white"/>
<path fill-rule="evenodd" clip-rule="evenodd" d="M19.9613 29.2212H22.7138C24.595 29.2212 26.1715 28.8657 27.4432 28.1545C28.728 27.4436 29.6953 26.4559 30.3442 25.1919C30.9933 23.9276 31.3179 22.4528 31.3179 20.7675C31.3179 19.1215 30.8477 17.6532 29.9072 16.3627C29.2226 15.41 28.3 14.6982 27.139 14.2262C27.8172 13.8205 28.3889 13.2751 28.8539 12.5901C29.609 11.4972 29.9867 10.1673 29.9867 8.60021C29.9867 7.32296 29.6818 6.08513 29.0725 4.88695C28.4765 3.68878 27.5558 2.70765 26.3106 1.94381C25.0786 1.16698 23.4956 0.778564 21.5614 0.778564H18.8088C20.7431 0.778564 22.3261 1.16698 23.5581 1.94381C24.8033 2.70765 25.724 3.68878 26.32 4.88695C26.9293 6.08513 27.2342 7.32296 27.2342 8.60021C27.2342 10.1673 26.8565 11.4972 26.1014 12.5901C25.6364 13.2751 25.0647 13.8205 24.3864 14.2262C25.5474 14.6982 26.4701 15.41 27.1546 16.3627C28.0952 17.6532 28.5654 19.1215 28.5654 20.7675C28.5654 22.4528 28.2408 23.9276 27.5917 25.1919C26.9427 26.4559 25.9755 27.4436 24.6906 28.1545C23.419 28.8657 21.8425 29.2212 19.9613 29.2212Z" fill="white"/>
<path d="M47.411 22V8.32917H53.1729C54.0293 8.32917 54.7694 8.48209 55.3933 8.78793C56.0172 9.08153 56.4943 9.5097 56.8246 10.0724C57.1549 10.6229 57.3201 11.2774 57.3201 12.0359C57.3201 12.6965 57.1488 13.3021 56.8063 13.8526C56.476 14.3908 55.956 14.819 55.2465 15.1371V14.2196C55.8704 14.4642 56.3781 14.7762 56.7696 15.1554C57.161 15.5224 57.4424 15.9383 57.6137 16.4032C57.7972 16.8681 57.8889 17.3574 57.8889 17.8712C57.8889 19.1557 57.4669 20.165 56.6228 20.899C55.7909 21.633 54.6471 22 53.1913 22H47.411ZM49.5763 20.0732H53.3564C54.0782 20.0732 54.6532 19.8775 55.0813 19.486C55.5095 19.0823 55.7236 18.5502 55.7236 17.8896C55.7236 17.2167 55.5095 16.6846 55.0813 16.2931C54.6532 15.8894 54.0782 15.6876 53.3564 15.6876H49.5763V20.0732ZM49.5763 13.7792H53.228C53.8152 13.7792 54.2862 13.614 54.6409 13.2837C54.9957 12.9412 55.1731 12.4946 55.1731 11.9441C55.1731 11.3936 54.9957 10.9655 54.6409 10.6596C54.2862 10.3538 53.8152 10.2009 53.228 10.2009H49.5763V13.7792ZM64.2084 22.2202C63.2175 22.2202 62.3367 21.9939 61.566 21.5412C60.8075 21.0764 60.2142 20.4525 59.786 19.6695C59.3578 18.8744 59.1437 17.9874 59.1437 17.0088C59.1437 16.0056 59.3578 15.1187 59.786 14.348C60.2264 13.5773 60.8136 12.9717 61.5476 12.5313C62.2816 12.0787 63.1135 11.8524 64.0432 11.8524C64.7895 11.8524 65.4562 11.9808 66.0434 12.2377C66.6306 12.4946 67.126 12.8494 67.5297 13.3021C67.9334 13.7425 68.2393 14.2501 68.4472 14.8251C68.6674 15.4001 68.7775 16.0117 68.7775 16.6601C68.7775 16.8192 68.7714 16.9843 68.7592 17.1556C68.747 17.3268 68.7225 17.4859 68.6858 17.6327H60.7769V15.9812H67.5114L66.5205 16.7335C66.6428 16.1341 66.6 15.6019 66.392 15.1371C66.1963 14.66 65.8905 14.2868 65.4745 14.0177C65.0708 13.7363 64.5937 13.5957 64.0432 13.5957C63.4927 13.5957 63.0034 13.7363 62.5752 14.0177C62.147 14.2868 61.8167 14.6783 61.5843 15.1921C61.3519 15.6937 61.2601 16.3054 61.3091 17.0271C61.2479 17.7 61.3396 18.2872 61.5843 18.7887C61.8412 19.2903 62.196 19.6818 62.6486 19.9631C63.1135 20.2445 63.6395 20.3852 64.2267 20.3852C64.8262 20.3852 65.3338 20.2506 65.7498 19.9815C66.178 19.7124 66.5144 19.3637 66.759 18.9355L68.4472 19.7613C68.2515 20.2262 67.9457 20.6482 67.5297 21.0274C67.126 21.3944 66.6367 21.688 66.0617 21.9082C65.499 22.1162 64.8812 22.2202 64.2084 22.2202ZM70.4342 22V12.0726H72.416V14.0177L72.1775 13.7608C72.4221 13.1369 72.8136 12.6659 73.3519 12.3478C73.8902 12.0175 74.5141 11.8524 75.2236 11.8524C75.9576 11.8524 76.606 12.0114 77.1687 12.3295C77.7314 12.6476 78.1718 13.088 78.4899 13.6507C78.808 14.2134 78.967 14.8618 78.967 15.5958V22H76.9118V16.1463C76.9118 15.6447 76.8201 15.2227 76.6366 14.8802C76.4531 14.5254 76.19 14.2563 75.8475 14.0728C75.5172 13.877 75.138 13.7792 74.7098 13.7792C74.2816 13.7792 73.8963 13.877 73.5537 14.0728C73.2234 14.2563 72.9665 14.5254 72.783 14.8802C72.5995 15.2349 72.5078 15.657 72.5078 16.1463V22H70.4342ZM84.4893 22.2202C83.4739 22.2202 82.5808 21.9694 81.8101 21.4678C81.0517 20.9663 80.5195 20.2934 80.2137 19.4493L81.8101 18.697C82.0793 19.2597 82.4463 19.7062 82.9111 20.0365C83.3882 20.3668 83.9143 20.532 84.4893 20.532C84.9786 20.532 85.3762 20.4219 85.682 20.2017C85.9878 19.9815 86.1408 19.6818 86.1408 19.3025C86.1408 19.0579 86.0735 18.8621 85.9389 18.7153C85.8043 18.5563 85.6331 18.4278 85.4251 18.33C85.2294 18.2321 85.0275 18.1587 84.8196 18.1098L83.2598 17.6694C82.4035 17.4247 81.7612 17.0577 81.333 16.5684C80.9171 16.0668 80.7091 15.4857 80.7091 14.8251C80.7091 14.2257 80.8621 13.7058 81.1679 13.2654C81.4737 12.8127 81.8958 12.4641 82.434 12.2194C82.9723 11.9747 83.5779 11.8524 84.2507 11.8524C85.156 11.8524 85.9634 12.0787 86.6729 12.5313C87.3825 12.9717 87.884 13.5895 88.1776 14.3847L86.5812 15.1371C86.3854 14.66 86.0735 14.2807 85.6453 13.9994C85.2294 13.718 84.7584 13.5773 84.2324 13.5773C83.7797 13.5773 83.4188 13.6874 83.1497 13.9076C82.8806 14.1156 82.746 14.3908 82.746 14.7334C82.746 14.9658 82.8072 15.1615 82.9295 15.3206C83.0518 15.4674 83.2109 15.5897 83.4066 15.6876C83.6023 15.7732 83.8042 15.8466 84.0122 15.9078L85.627 16.3849C86.4466 16.6173 87.0766 16.9843 87.517 17.4859C87.9574 17.9752 88.1776 18.5624 88.1776 19.2475C88.1776 19.8347 88.0186 20.3546 87.7005 20.8072C87.3947 21.2476 86.9665 21.5963 86.416 21.8532C85.8655 22.0979 85.2233 22.2202 84.4893 22.2202ZM94.6317 22.2202C93.6775 22.2202 92.8028 21.9939 92.0076 21.5412C91.2247 21.0886 90.6008 20.4708 90.1359 19.6879C89.6711 18.9049 89.4386 18.018 89.4386 17.0271C89.4386 16.024 89.6711 15.1371 90.1359 14.3664C90.6008 13.5834 91.2247 12.9717 92.0076 12.5313C92.7906 12.0787 93.6653 11.8524 94.6317 11.8524C95.6104 11.8524 96.4851 12.0787 97.2558 12.5313C98.0387 12.9717 98.6565 13.5834 99.1091 14.3664C99.574 15.1371 99.8064 16.024 99.8064 17.0271C99.8064 18.0303 99.574 18.9233 99.1091 19.7062C98.6443 20.4892 98.0204 21.107 97.2374 21.5596C96.4545 22 95.5859 22.2202 94.6317 22.2202ZM94.6317 20.2934C95.2189 20.2934 95.7388 20.1528 96.1915 19.8714C96.6441 19.59 96.9989 19.2047 97.2558 18.7153C97.5249 18.2138 97.6595 17.651 97.6595 17.0271C97.6595 16.4032 97.5249 15.8466 97.2558 15.3573C96.9989 14.8679 96.6441 14.4826 96.1915 14.2012C95.7388 13.9198 95.2189 13.7792 94.6317 13.7792C94.0567 13.7792 93.5368 13.9198 93.0719 14.2012C92.6193 14.4826 92.2584 14.8679 91.9893 15.3573C91.7324 15.8466 91.6039 16.4032 91.6039 17.0271C91.6039 17.651 91.7324 18.2138 91.9893 18.7153C92.2584 19.2047 92.6193 19.59 93.0719 19.8714C93.5368 20.1528 94.0567 20.2934 94.6317 20.2934ZM105.005 22.2202C104.259 22.2202 103.605 22.0551 103.042 21.7247C102.479 21.3822 102.039 20.9112 101.721 20.3118C101.415 19.7001 101.262 18.9967 101.262 18.2015V12.0726H103.336V18.018C103.336 18.4707 103.427 18.8682 103.611 19.2108C103.794 19.5533 104.051 19.8225 104.381 20.0182C104.712 20.2017 105.091 20.2934 105.519 20.2934C105.96 20.2934 106.345 20.1956 106.675 19.9998C107.006 19.8041 107.262 19.5289 107.446 19.1741C107.642 18.8193 107.74 18.4034 107.74 17.9263V12.0726H109.795V22H107.831V20.0549L108.052 20.3118C107.819 20.9235 107.434 21.3944 106.895 21.7247C106.357 22.0551 105.727 22.2202 105.005 22.2202ZM116.436 22.2202C115.482 22.2202 114.626 21.9939 113.867 21.5412C113.121 21.0764 112.528 20.4525 112.087 19.6695C111.659 18.8866 111.445 18.0058 111.445 17.0271C111.445 16.0484 111.665 15.1676 112.106 14.3847C112.546 13.6018 113.139 12.984 113.886 12.5313C114.632 12.0787 115.476 11.8524 116.418 11.8524C117.213 11.8524 117.917 12.0114 118.528 12.3295C119.14 12.6476 119.623 13.088 119.978 13.6507L119.666 14.1278V8.10897H121.721V22H119.758V19.9815L119.996 20.3668C119.654 20.9663 119.164 21.425 118.528 21.7431C117.892 22.0612 117.195 22.2202 116.436 22.2202ZM116.638 20.2934C117.213 20.2934 117.727 20.1528 118.18 19.8714C118.644 19.59 119.005 19.2047 119.262 18.7153C119.531 18.2138 119.666 17.651 119.666 17.0271C119.666 16.4032 119.531 15.8466 119.262 15.3573C119.005 14.8679 118.644 14.4826 118.18 14.2012C117.727 13.9198 117.213 13.7792 116.638 13.7792C116.063 13.7792 115.543 13.9198 115.078 14.2012C114.614 14.4826 114.253 14.8679 113.996 15.3573C113.739 15.8466 113.61 16.4032 113.61 17.0271C113.61 17.651 113.739 18.2138 113.996 18.7153C114.253 19.2047 114.607 19.59 115.06 19.8714C115.525 20.1528 116.051 20.2934 116.638 20.2934ZM126.748 22.2202C126.075 22.2202 125.482 22.104 124.968 21.8715C124.466 21.6269 124.075 21.2966 123.793 20.8806C123.512 20.4525 123.371 19.9509 123.371 19.3759C123.371 18.8377 123.487 18.3544 123.72 17.9263C123.965 17.4981 124.338 17.1372 124.839 16.8436C125.341 16.55 125.971 16.3421 126.729 16.2197L130.179 15.6509V17.284L127.133 17.8162C126.583 17.914 126.179 18.0914 125.922 18.3483C125.665 18.593 125.537 18.9111 125.537 19.3025C125.537 19.6818 125.677 19.9937 125.959 20.2384C126.252 20.4708 126.625 20.587 127.078 20.587C127.641 20.587 128.13 20.4647 128.546 20.22C128.974 19.9754 129.304 19.6512 129.537 19.2475C129.769 18.8315 129.886 18.3728 129.886 17.8712V15.3206C129.886 14.8312 129.702 14.4336 129.335 14.1278C128.98 13.8097 128.503 13.6507 127.904 13.6507C127.353 13.6507 126.87 13.7975 126.454 14.0911C126.05 14.3725 125.751 14.7395 125.555 15.1921L123.83 14.3297C124.014 13.8403 124.313 13.4122 124.729 13.0451C125.145 12.6659 125.628 12.3723 126.179 12.1643C126.742 11.9564 127.335 11.8524 127.959 11.8524C128.742 11.8524 129.433 11.9992 130.032 12.2928C130.644 12.5864 131.115 12.9962 131.445 13.5223C131.788 14.0361 131.959 14.6355 131.959 15.3206V22H129.977V20.2017L130.399 20.2567C130.167 20.6604 129.867 21.0091 129.5 21.3027C129.145 21.5963 128.736 21.8226 128.271 21.9816C127.818 22.1407 127.31 22.2202 126.748 22.2202ZM137.059 22V8.32917H142.821C143.677 8.32917 144.418 8.48209 145.041 8.78793C145.665 9.08153 146.142 9.5097 146.473 10.0724C146.803 10.6229 146.968 11.2774 146.968 12.0359C146.968 12.6965 146.797 13.3021 146.454 13.8526C146.124 14.3908 145.604 14.819 144.895 15.1371V14.2196C145.519 14.4642 146.026 14.7762 146.418 15.1554C146.809 15.5224 147.091 15.9383 147.262 16.4032C147.445 16.8681 147.537 17.3574 147.537 17.8712C147.537 19.1557 147.115 20.165 146.271 20.899C145.439 21.633 144.295 22 142.839 22H137.059ZM139.224 20.0732H143.005C143.726 20.0732 144.301 19.8775 144.729 19.486C145.158 19.0823 145.372 18.5502 145.372 17.8896C145.372 17.2167 145.158 16.6846 144.729 16.2931C144.301 15.8894 143.726 15.6876 143.005 15.6876H139.224V20.0732ZM139.224 13.7792H142.876C143.463 13.7792 143.934 13.614 144.289 13.2837C144.644 12.9412 144.821 12.4946 144.821 11.9441C144.821 11.3936 144.644 10.9655 144.289 10.6596C143.934 10.3538 143.463 10.2009 142.876 10.2009H139.224V13.7792ZM149.196 22V12.0726H151.177V14.0728L150.994 13.7792C151.214 13.1308 151.569 12.6659 152.058 12.3845C152.548 12.0909 153.135 11.9441 153.82 11.9441H154.425V13.8342H153.563C152.878 13.8342 152.321 14.0483 151.893 14.4765C151.477 14.8924 151.269 15.4918 151.269 16.2748V22H149.196ZM160.138 22.2202C159.147 22.2202 158.266 21.9939 157.495 21.5412C156.737 21.0764 156.144 20.4525 155.715 19.6695C155.287 18.8744 155.073 17.9874 155.073 17.0088C155.073 16.0056 155.287 15.1187 155.715 14.348C156.156 13.5773 156.743 12.9717 157.477 12.5313C158.211 12.0787 159.043 11.8524 159.973 11.8524C160.719 11.8524 161.386 11.9808 161.973 12.2377C162.56 12.4946 163.056 12.8494 163.459 13.3021C163.863 13.7425 164.169 14.2501 164.377 14.8251C164.597 15.4001 164.707 16.0117 164.707 16.6601C164.707 16.8192 164.701 16.9843 164.689 17.1556C164.676 17.3268 164.652 17.4859 164.615 17.6327H156.706V15.9812H163.441L162.45 16.7335C162.572 16.1341 162.529 15.6019 162.322 15.1371C162.126 14.66 161.82 14.2868 161.404 14.0177C161 13.7363 160.523 13.5957 159.973 13.5957C159.422 13.5957 158.933 13.7363 158.505 14.0177C158.077 14.2868 157.746 14.6783 157.514 15.1921C157.281 15.6937 157.19 16.3054 157.239 17.0271C157.177 17.7 157.269 18.2872 157.514 18.7887C157.771 19.2903 158.125 19.6818 158.578 19.9631C159.043 20.2445 159.569 20.3852 160.156 20.3852C160.756 20.3852 161.263 20.2506 161.679 19.9815C162.107 19.7124 162.444 19.3637 162.689 18.9355L164.377 19.7613C164.181 20.2262 163.875 20.6482 163.459 21.0274C163.056 21.3944 162.566 21.688 161.991 21.9082C161.428 22.1162 160.811 22.2202 160.138 22.2202ZM170.658 22.1101C169.618 22.1101 168.81 21.8165 168.235 21.2293C167.66 20.6421 167.373 19.8163 167.373 18.752V13.9443H165.63V12.0726H165.905C166.37 12.0726 166.731 11.938 166.988 11.6689C167.244 11.3998 167.373 11.0328 167.373 10.5679V9.79718H169.447V12.0726H171.704V13.9443H169.447V18.6603C169.447 19.0028 169.502 19.2964 169.612 19.5411C169.722 19.7735 169.899 19.957 170.144 20.0916C170.388 20.2139 170.707 20.2751 171.098 20.2751C171.196 20.2751 171.306 20.269 171.428 20.2567C171.551 20.2445 171.667 20.2323 171.777 20.22V22C171.606 22.0245 171.416 22.0489 171.208 22.0734C171 22.0979 170.817 22.1101 170.658 22.1101ZM178.044 22.2202C177.089 22.2202 176.215 21.9939 175.42 21.5412C174.637 21.0886 174.013 20.4708 173.548 19.6879C173.083 18.9049 172.851 18.018 172.851 17.0271C172.851 16.024 173.083 15.1371 173.548 14.3664C174.013 13.5834 174.637 12.9717 175.42 12.5313C176.203 12.0787 177.077 11.8524 178.044 11.8524C179.022 11.8524 179.897 12.0787 180.668 12.5313C181.451 12.9717 182.068 13.5834 182.521 14.3664C182.986 15.1371 183.218 16.024 183.218 17.0271C183.218 18.0303 182.986 18.9233 182.521 19.7062C182.056 20.4892 181.432 21.107 180.649 21.5596C179.866 22 178.998 22.2202 178.044 22.2202ZM178.044 20.2934C178.631 20.2934 179.151 20.1528 179.603 19.8714C180.056 19.59 180.411 19.2047 180.668 18.7153C180.937 18.2138 181.071 17.651 181.071 17.0271C181.071 16.4032 180.937 15.8466 180.668 15.3573C180.411 14.8679 180.056 14.4826 179.603 14.2012C179.151 13.9198 178.631 13.7792 178.044 13.7792C177.469 13.7792 176.949 13.9198 176.484 14.2012C176.031 14.4826 175.67 14.8679 175.401 15.3573C175.144 15.8466 175.016 16.4032 175.016 17.0271C175.016 17.651 175.144 18.2138 175.401 18.7153C175.67 19.2047 176.031 19.59 176.484 19.8714C176.949 20.1528 177.469 20.2934 178.044 20.2934ZM184.876 22V12.0726H186.858V14.0177L186.619 13.7608C186.864 13.1369 187.255 12.6659 187.793 12.3478C188.332 12.0175 188.956 11.8524 189.665 11.8524C190.399 11.8524 191.048 12.0114 191.61 12.3295C192.173 12.6476 192.613 13.088 192.931 13.6507C193.25 14.2134 193.409 14.8618 193.409 15.5958V22H191.353V16.1463C191.353 15.6447 191.262 15.2227 191.078 14.8802C190.895 14.5254 190.632 14.2563 190.289 14.0728C189.959 13.877 189.58 13.7792 189.151 13.7792C188.723 13.7792 188.338 13.877 187.995 14.0728C187.665 14.2563 187.408 14.5254 187.225 14.8802C187.041 15.2349 186.949 15.657 186.949 16.1463V22H184.876Z" fill="white"/>
</svg>
